<?xml version="1.0" encoding="utf-8"?>
<!-- Generator: Adobe Illustrator 23.0.3, SVG Export Plug-In . SVG Version: 6.00 Build 0)  -->
<svg version="1.1" id="Layer_1" xmlns="http://www.w3.org/2000/svg" xmlns:xlink="http://www.w3.org/1999/xlink" x="0px" y="0px"
	 viewBox="0 0 200 114.8" style="enable-background:new 0 0 200 114.8;" xml:space="preserve">
<style type="text/css">
	.st0{fill:#FFFFFF;}
</style>
<path class="st0" d="M0,67.6V55.4h4.1c0.7,0,1.3,0,1.7,0.1c0.5,0.1,1,0.3,1.4,0.6c0.4,0.3,0.7,0.7,0.9,1.2c0.2,0.5,0.3,1.1,0.3,1.7
	c0,1-0.3,1.9-0.9,2.6c-0.6,0.7-1.7,1.1-3.2,1.1H1.5v4.9H0z M1.5,61.2h2.8c0.9,0,1.6-0.2,2-0.6c0.4-0.4,0.6-0.9,0.6-1.6
	c0-0.5-0.1-0.9-0.3-1.3C6.3,57.3,6,57.1,5.6,57c-0.2-0.1-0.7-0.1-1.4-0.1H1.5V61.2z M21.8,67.6V55.4h4.9c1,0,1.7,0.1,2.2,0.3
	c0.5,0.2,0.9,0.6,1.2,1.2c0.3,0.6,0.5,1.2,0.5,1.8c0,0.9-0.3,1.6-0.8,2.2c-0.5,0.6-1.3,1-2.3,1.1c0.4,0.2,0.7,0.4,0.9,0.6
	c0.4,0.4,0.8,1,1.2,1.6l1.9,3.3h-1.8l-1.4-2.5c-0.4-0.7-0.8-1.3-1-1.7c-0.3-0.4-0.5-0.7-0.7-0.8c-0.2-0.2-0.4-0.3-0.7-0.3
	c-0.2,0-0.4-0.1-0.8-0.1h-1.7v5.4H21.8z M23.2,60.8h3.1c0.7,0,1.2-0.1,1.6-0.2c0.4-0.2,0.7-0.4,0.8-0.7c0.2-0.3,0.3-0.7,0.3-1.1
	c0-0.6-0.2-1-0.6-1.4c-0.4-0.4-1-0.6-1.8-0.6h-3.5V60.8z M43.9,61.7c0-2,0.5-3.6,1.5-4.7c1-1.1,2.2-1.7,3.8-1.7c1,0,1.9,0.3,2.7,0.8
	c0.8,0.5,1.4,1.3,1.9,2.2c0.4,1,0.6,2,0.6,3.3c0,1.2-0.2,2.3-0.7,3.3c-0.4,1-1.1,1.7-1.9,2.2c-0.8,0.5-1.7,0.7-2.7,0.7
	c-1,0-2-0.3-2.8-0.8c-0.8-0.6-1.4-1.3-1.8-2.3C44.1,63.7,43.9,62.7,43.9,61.7z M45.4,61.7c0,1.5,0.4,2.6,1.1,3.5
	c0.7,0.8,1.6,1.3,2.7,1.3c1.1,0,2-0.4,2.7-1.3c0.7-0.9,1.1-2.1,1.1-3.6c0-1-0.2-1.9-0.5-2.6c-0.3-0.7-0.7-1.3-1.3-1.7
	c-0.6-0.4-1.2-0.6-2-0.6c-1,0-1.9,0.4-2.6,1.2C45.7,58.5,45.4,59.9,45.4,61.7z M67.7,67.6V55.4h4.1c0.7,0,1.3,0,1.7,0.1
	c0.5,0.1,1,0.3,1.4,0.6c0.4,0.3,0.7,0.7,0.9,1.2c0.2,0.5,0.3,1.1,0.3,1.7c0,1-0.3,1.9-0.9,2.6c-0.6,0.7-1.7,1.1-3.2,1.1h-2.8v4.9
	H67.7z M69.2,61.2H72c0.9,0,1.6-0.2,2-0.6c0.4-0.4,0.6-0.9,0.6-1.6c0-0.5-0.1-0.9-0.3-1.3c-0.2-0.4-0.5-0.6-0.9-0.7
	c-0.2-0.1-0.7-0.1-1.4-0.1h-2.8V61.2z M89.5,67.6V55.4h7.9v1.4h-6.5v3.7H97V62h-6.1v4.1h6.7v1.4H89.5z M111.2,67.6V55.4h4.9
	c1,0,1.7,0.1,2.2,0.3c0.5,0.2,0.9,0.6,1.2,1.2c0.3,0.6,0.5,1.2,0.5,1.8c0,0.9-0.3,1.6-0.8,2.2c-0.5,0.6-1.3,1-2.3,1.1
	c0.4,0.2,0.7,0.4,0.9,0.6c0.4,0.4,0.8,1,1.2,1.6l1.9,3.3H119l-1.4-2.5c-0.4-0.7-0.8-1.3-1-1.7c-0.3-0.4-0.5-0.7-0.7-0.8
	c-0.2-0.2-0.4-0.3-0.7-0.3c-0.2,0-0.4-0.1-0.8-0.1h-1.7v5.4H111.2z M112.6,60.8h3.1c0.7,0,1.2-0.1,1.6-0.2c0.4-0.2,0.7-0.4,0.8-0.7
	c0.2-0.3,0.3-0.7,0.3-1.1c0-0.6-0.2-1-0.6-1.4c-0.4-0.4-1-0.6-1.8-0.6h-3.5V60.8z M136.2,67.6V56.9h-3.6v-1.4h8.7v1.4h-3.6v10.7
	H136.2z M154.5,67.6V55.4h1.4v12.2H154.5z M170.1,67.6V55.4h7.9v1.4h-6.5v3.7h6.1V62h-6.1v4.1h6.7v1.4H170.1z M191.3,63.7l1.4-0.1
	c0.1,0.6,0.2,1.1,0.5,1.5c0.2,0.4,0.6,0.7,1.1,0.9c0.5,0.2,1.1,0.4,1.7,0.4c0.6,0,1-0.1,1.5-0.3c0.4-0.2,0.7-0.4,0.9-0.7
	c0.2-0.3,0.3-0.7,0.3-1c0-0.4-0.1-0.7-0.3-1c-0.2-0.3-0.5-0.5-1-0.7c-0.3-0.1-0.9-0.3-1.9-0.6c-1-0.3-1.7-0.5-2.1-0.8
	c-0.5-0.3-0.9-0.7-1.2-1.1c-0.3-0.5-0.4-1-0.4-1.5c0-0.6,0.2-1.2,0.5-1.7c0.3-0.5,0.8-0.9,1.4-1.2c0.6-0.3,1.3-0.4,2-0.4
	c0.8,0,1.5,0.1,2.1,0.4c0.6,0.3,1.1,0.7,1.4,1.3c0.3,0.6,0.5,1.2,0.5,1.9l-1.4,0.1c-0.1-0.8-0.3-1.4-0.8-1.7
	c-0.4-0.4-1.1-0.6-1.9-0.6c-0.9,0-1.5,0.2-1.9,0.5c-0.4,0.4-0.6,0.8-0.6,1.3c0,0.4,0.1,0.8,0.4,1.1c0.3,0.3,1,0.6,2.2,0.9
	c1.2,0.3,2,0.6,2.4,0.8c0.6,0.3,1.1,0.7,1.4,1.2c0.3,0.5,0.5,1.1,0.5,1.7c0,0.6-0.2,1.3-0.5,1.8c-0.3,0.6-0.8,1-1.4,1.3
	c-0.6,0.3-1.3,0.5-2.1,0.5c-1,0-1.8-0.2-2.5-0.5c-0.7-0.3-1.2-0.8-1.6-1.4C191.5,65.2,191.3,64.5,191.3,63.7z M185.3,8.9
	c0,0,4.4,0.1,4.5,4.9c0,0,0.1,2.2,2.3,2.2h5.6c0,0,2.7,0.2,2.1-4c0,0-0.7-9.7-9.6-11.8c0,0-1-0.3-2.8-0.3h-7.9
	c0,0-10.2,0.5-12.4,11.2c0,0-1.1,9.8,1.5,12.7c0,0,1.7,2.7,4.5,4.1c-0.1,0,0.6,0.8,11,2.4c0,0,2.9,0.1,2.9,2.4c0,0,0.4,2.6-2.2,2.8
	h-15.8c0,0-2.9-0.4-2.9,2.5v4.5c0,0-0.3,2.8,2.3,3h19.7c0,0,7.7,0,10.4-7.7c0,0,3-11-4.4-15.5c0,0-1-1.6-10.1-2.8c0,0-5.1-0.6-6-1.9
	c0,0-2.2-1.7-0.9-6.3c0.1-0.1,1.1-2.3,4-2.5L185.3,8.9z M147.8,11.5c0,0,1.6,1.5,1.8,3.8c0,0,0.1,2.2,2.3,2.4h5.6
	c0,0,1.8-0.1,2.1-2.1v-4.1c0,0,0.2-4.5-5.2-9c0,0-2.6-2.5-7.6-2.5h-8.7c0,0-4.6,0.1-7.6,3.4c0,0-3.4,2.7-4.9,8c0,0-0.9,3.7-0.7,6.3
	v12c0,0,0,6.8,4.7,11.7c0,0,2.8,3.4,7.2,4.1l1.6,0.2h6.6c0,0,3.9-0.3,5.6-4l1.9,2.7c0,0,0.8,1.3,2,1.3h3.6c0,0,1.9-0.5,1.9-2.3V25.4
	c0,0,0.1-3.9-4.4-4.4h-8.6c0,0-2.8-0.2-2.6,3.2v2.4c0,0,0.2,1.8,1.8,2.2l1,0.1h1.7c0,0,0.8,4.5-3.3,6.5c0,0-5.3,2-8.3-2.1
	c0,0-1.4-1.2-1.2-5.7V15.6c0,0,0.1-4.2,4.4-5.6c0,0,2.1-0.7,4.8,0C145.3,10,146.9,10.4,147.8,11.5z M94.4,2c-1.1-1.9-2.7-2-2.7-2
	h-4.9C83.9,0.3,84,3,84,3v39.7c0,2.8,2.8,3,2.8,3h5.5c2.9-0.3,2.9-2.9,2.9-2.9V21.6l15.7,22.7c0.8,1.1,2.3,1.3,2.3,1.3h3.4
	c3.4-0.2,3-3.4,3-3.4v-39c0-3.1-2.7-3.2-2.7-3.2H112c-0.1,0-0.1,0-0.1,0h0c-3.2,0-3.4,2.8-3.4,2.8v19.7C108.5,22.5,94.4,2,94.4,2z
	 M77.6,42.9L64.6,3.4c0,0-0.8-3.1-4.3-3.4H57c-3.6,0.3-4.3,3.3-4.3,3.3L39.8,43c-0.3,2.5,2.1,2.7,2.1,2.7h5.3c1.7,0,2.2-1.6,2.2-1.6
	l2.1-6.5h14.2l2.1,6.5c0,0,0.6,1.6,2.2,1.6h5.3C75.4,45.6,77.8,45.4,77.6,42.9z M54.8,28l3.9-12.1l0,0.1l4,12H54.8z M28.6,23.3
	c0,0,5.7-3,4.9-12.2c0,0,0.2-7.2-7.3-10.4c0,0-1.8-0.7-4.5-0.7H5.1c0,0-5.4-0.2-5,5.6C0.1,12,0,43.1,0,43.1s0,0,0,0.1v0
	c0,0.5,0.2,2.1,2.3,2.4h6.3c0,0,2.3-0.1,2.3-2.6V28.6h7.2c0,0,4.2-0.5,4.7,4.4v10.3c0,0,0.1,2,2.3,2.3h6.2c0,0,2-0.2,2.1-2.3V28.4
	C33.5,28.4,33.2,24,28.6,23.3z M19,18.3h-8.1v-8.1c0,0,2.8,0,6,0c0.7,0,1.4,0,2,0c4,0.4,4,3.9,4,3.9C22.8,18.1,19,18.3,19,18.3z
	 M23.9,108.5l4.6,5.9h-2.7l-4.2-5.6h-1.8v5.6h-2.2V99.7h4c2.8,0,3.3,0.4,4.2,1.1c0.9,0.8,1.4,1.9,1.4,3.2c0,1-0.3,2.3-0.9,3.1
	C25.7,107.8,24.9,108.3,23.9,108.5z M19.8,106.8h2.1c2.1,0,3.2-1.2,3.2-2.8c0-1.5-1-2.3-3.1-2.3h-2.1V106.8z M57.7,114.4V99.7
	l10.7,9.4v-9.3h2.2v14.7L60,105.1v9.3H57.7z M89.6,100.5v2.6c-1.3-1.1-2.6-1.6-4-1.6c-1.5,0-2.8,0.5-3.8,1.6c-1,1.1-1.6,2.4-1.6,4
	c0,1.5,0.5,2.8,1.6,3.9c1,1.1,2.3,1.6,3.8,1.6c0.8,0,1.4-0.1,2-0.4c0.3-0.1,0.6-0.3,0.9-0.5c0.3-0.2,0.7-0.5,1-0.8v2.7
	c-1.3,0.7-2.6,1.1-4,1.1c-2.1,0-3.9-0.7-5.4-2.2c-1.5-1.5-2.2-3.3-2.2-5.4c0-1.9,0.6-3.5,1.9-5c1.5-1.8,3.5-2.7,5.9-2.7
	C87.1,99.4,88.4,99.8,89.6,100.5z M96.8,107c0-2.1,0.8-3.8,2.3-5.3c1.5-1.5,3.3-2.2,5.4-2.2c2.1,0,3.9,0.8,5.4,2.3
	c1.5,1.5,2.3,3.3,2.3,5.4c0,2.1-0.8,3.9-2.3,5.4c-1.5,1.5-3.3,2.2-5.5,2.2c-1.9,0-3.6-0.7-5.1-2C97.7,111.2,96.8,109.3,96.8,107z
	 M99.1,107c0,1.6,0.5,3,1.6,4c1.1,1,2.3,1.6,3.8,1.6c1.5,0,2.8-0.5,3.9-1.6c1.1-1.1,1.6-2.4,1.6-3.9c0-1.6-0.5-2.9-1.6-3.9
	c-1-1.1-2.3-1.6-3.9-1.6c-1.5,0-2.8,0.5-3.9,1.6C99.6,104.2,99.1,105.5,99.1,107z M119.4,114.4V99.7l10.7,9.4v-9.3h2.2v14.7
	l-10.7-9.4v9.3H119.4z M42.1,114.4h8.5l-4.3-7.9L42.1,114.4z M42.6,99.6l-8,14.8h1.3l7.4-13.6L42.6,99.6z M43.8,101.9l-6.8,12.5h1.3
	l6.1-11.3L43.8,101.9z M45.7,105.5l-0.6-1.2l-5.5,10.2h1.3L45.7,105.5L45.7,105.5z M2.2,111.8l-1.1,2.5H0l4.1-9.4l4,9.4H7.1L6,111.8
	H2.2z M4.1,107.3l-1.5,3.6h3L4.1,107.3z M147.9,107.4c-0.7-0.7-1.7-1.2-2.7-1.2c-2,0-3.6,1.7-3.6,3.7c0,2,1.6,3.7,3.6,3.7
	c1,0,2-0.5,2.7-1.2v1.2c-0.8,0.6-1.7,0.9-2.7,0.9c-2.5,0-4.7-2.1-4.7-4.6c0-2.6,2.1-4.7,4.7-4.7c1,0,1.9,0.3,2.7,0.9V107.4z
	 M158.5,109.9c0,2.6-2.1,4.6-4.7,4.6c-2.6,0-4.7-2-4.7-4.6c0-2.6,2.1-4.7,4.7-4.7C156.4,105.2,158.5,107.3,158.5,109.9z
	 M150.2,109.9c0,2,1.6,3.7,3.7,3.7c2,0,3.7-1.7,3.7-3.7c0-2-1.6-3.7-3.7-3.7C151.8,106.2,150.2,107.9,150.2,109.9z M161.1,104.9
	l3.3,7.5l3.3-7.5l1.8,9.5h-1l-1.2-6.1h0l-2.9,6.4l-2.9-6.4h0l-1.2,6.1h-1L161.1,104.9z M171.5,114.4h-1v-9h1.5c0.8,0,1.6,0,2.2,0.5
	c0.7,0.5,1,1.3,1,2.1c0,0.7-0.3,1.5-0.9,1.9c-0.6,0.5-1.4,0.6-2.1,0.6h-0.7V114.4z M171.5,109.5h0.7c1.1,0,2-0.3,2-1.6
	c0-1.5-1.2-1.6-2.3-1.6h-0.4V109.5z M176.9,111.8l-1.1,2.5h-1.1l4.1-9.4l4,9.4h-1.1l-1.1-2.5H176.9z M178.9,107.3l-1.5,3.6h3
	L178.9,107.3z M184,105l7,7.3v-7h1v9.4l-7-7.3v6.9h-1V105z M193,105.4h1.2l2.3,4l2.3-4h1.2l-2.9,5.1v3.9h-1v-3.9L193,105.4z"/>
</svg>
