<?xml version="1.0" encoding="utf-8"?>
<!-- Generator: Adobe Illustrator 23.0.0, SVG Export Plug-In . SVG Version: 6.00 Build 0)  -->
<svg version="1.1" id="Layer_1" xmlns="http://www.w3.org/2000/svg" xmlns:xlink="http://www.w3.org/1999/xlink" x="0px" y="0px"
	 viewBox="0 0 20 20" style="enable-background:new 0 0 20 20;" xml:space="preserve">
<style type="text/css">
	.st0{fill:#FFFFFF;enable-background:new    ;}
</style>
<path class="st0" d="M19.99,15.57c-0.1-0.2-0.4-0.4-1.09-0.8c-0.2-0.1-0.4-0.2-0.8-0.4c-0.3-0.2-0.6-0.3-0.89-0.5
	c-0.3-0.2-0.5-0.3-0.8-0.4c0,0-0.2-0.1-0.4-0.2c-0.2-0.1-0.4-0.2-0.5-0.3c-0.1-0.1-0.3-0.1-0.4-0.1c-0.2,0-0.4,0.1-0.7,0.4
	c-0.3,0.3-0.5,0.6-0.8,0.89c-0.2,0.3-0.5,0.6-0.8,0.89c-0.3,0.3-0.5,0.4-0.7,0.4c-0.1,0-0.2,0-0.3-0.1c-0.1,0-0.2-0.1-0.3-0.1
	s-0.2-0.1-0.3-0.2c-0.2-0.1-0.3-0.2-0.3-0.2c-1.29-0.7-2.39-1.49-3.28-2.49S5.87,10.4,5.18,9.11c0,0-0.1-0.1-0.2-0.3
	c-0.1-0.2-0.2-0.3-0.2-0.3s-0.1-0.2-0.1-0.3c0-0.1-0.1-0.2-0.1-0.3c0-0.2,0.1-0.4,0.4-0.7c0.3-0.3,0.6-0.5,0.89-0.8
	c0.3-0.2,0.6-0.5,0.89-0.8c0.3-0.3,0.4-0.5,0.4-0.7c0-0.1,0-0.3-0.1-0.4c-0.1-0.1-0.2-0.3-0.3-0.5c-0.1-0.2-0.2-0.3-0.2-0.4
	c-0.1-0.2-0.3-0.5-0.4-0.8c-0.2-0.3-0.3-0.6-0.5-0.89c-0.2-0.3-0.3-0.6-0.4-0.8c-0.3-0.7-0.6-0.99-0.8-1.09c-0.1,0-0.2,0-0.3,0
	c-0.3,0-0.6,0-0.99,0.1s-0.7,0.2-0.99,0.3C1.7,0.65,1.2,1.25,0.7,2.15c-0.5,0.89-0.7,1.79-0.7,2.58c0,0.3,0,0.5,0.1,0.7
	c0,0.2,0.1,0.5,0.2,0.8c0.1,0.3,0.2,0.5,0.2,0.7c0.1,0.1,0.1,0.4,0.3,0.8c0.1,0.4,0.2,0.6,0.3,0.7C1.4,9.3,1.8,10.2,2.3,10.89
	c0.7,1.19,1.79,2.49,3.08,3.78s2.49,2.29,3.78,3.08c0.7,0.5,1.59,0.8,2.49,1.19c0.01,0.01,0.3,0.1,0.7,0.3c0.4,0.2,0.6,0.2,0.8,0.3
	c0,0.01,0.4,0.1,0.7,0.2s0.81,0.2,0.8,0.2c0.2,0,0.5,0,0.7,0c0.89,0,1.79-0.2,2.58-0.7c0.99-0.5,1.49-0.99,1.69-1.49
	c0.1-0.2,0.2-0.6,0.3-0.99c0.1-0.4,0.1-0.7,0.1-0.99C19.99,15.77,19.99,15.67,19.99,15.57z"/>
</svg>
