<svg xmlns="http://www.w3.org/2000/svg" width="18.54" height="14.568" viewBox="0 0 18.54 14.568">
  <g id="Group_21" data-name="Group 21" transform="translate(-1194.73 -579.791)">
    <g id="Group_157" data-name="Group 157">
      <path id="Path_6" data-name="Path 6" d="M1196.509,584.282q.352.248,2.121,1.474t2.711,1.888c.069.048.215.154.44.316s.41.293.558.393.328.212.538.336a3.165,3.165,0,0,0,.6.279,1.652,1.652,0,0,0,.518.093h.02a1.652,1.652,0,0,0,.518-.093,3.165,3.165,0,0,0,.6-.279q.315-.186.538-.336t.558-.393c.224-.162.371-.268.44-.316l4.842-3.362a4.908,4.908,0,0,0,1.262-1.273,2.732,2.732,0,0,0,.507-1.562,1.67,1.67,0,0,0-1.655-1.656h-15.23a1.479,1.479,0,0,0-1.226.538,2.092,2.092,0,0,0-.429,1.345,2.412,2.412,0,0,0,.569,1.413A5.146,5.146,0,0,0,1196.509,584.282Z" fill="#fff"/>
    </g>
    <path id="Path_7" data-name="Path 7" d="M1212.236,585.389q-3.394,2.3-5.153,3.569-.59.435-.957.678a5.929,5.929,0,0,1-.978.5,2.958,2.958,0,0,1-1.137.254h-.021a2.959,2.959,0,0,1-1.138-.254,5.929,5.929,0,0,1-.978-.5q-.367-.243-.957-.678-1.4-1.024-5.142-3.569a5.468,5.468,0,0,1-1.045-.9V592.7a1.659,1.659,0,0,0,1.655,1.656h15.23a1.659,1.659,0,0,0,1.655-1.656v-8.214A5.688,5.688,0,0,1,1212.236,585.389Z" fill="#fff"/>
  </g>
</svg>
