<?xml version="1.0" encoding="utf-8"?>
<!-- Generator: Adobe Illustrator 26.0.3, SVG Export Plug-In . SVG Version: 6.00 Build 0)  -->
<svg version="1.1" id="Layer_1" xmlns="http://www.w3.org/2000/svg" xmlns:xlink="http://www.w3.org/1999/xlink" x="0px" y="0px"
	 viewBox="0 0 89.5 17.8" style="enable-background:new 0 0 89.5 17.8;" xml:space="preserve">
<style type="text/css">
	.st0{fill:#FFFFFF;}
</style>
<g>
	<path class="st0" d="M56.2,17.6c-3.4,0-5.9-2.7-5.9-6.1c0-1.5,0.6-2.8,1.4-4l4.7-7.2H60l-3.8,5.7C56.5,6,56.7,6,57,6
		c3,0,5.1,2.6,5.1,5.5C62.1,14.9,59.6,17.6,56.2,17.6L56.2,17.6z M56.2,8.8c-1.6,0-2.8,1.3-2.8,2.9c0,1.6,1.2,3,2.8,3
		c1.6,0,2.8-1.4,2.8-2.9C59,10.2,57.8,8.8,56.2,8.8L56.2,8.8z"/>
	<path class="st0" d="M43.4,17.6c-3.4,0-5.9-2.7-5.9-6.1c0-1.5,0.6-2.8,1.4-4l4.7-7.2h3.6l-3.8,5.7C43.7,6,43.9,6,44.1,6
		c3,0,5.1,2.6,5.1,5.5C49.3,14.9,46.8,17.6,43.4,17.6L43.4,17.6z M43.3,8.8c-1.6,0-2.8,1.3-2.8,2.9c0,1.6,1.2,3,2.8,3
		c1.6,0,2.8-1.4,2.8-2.9C46.2,10.2,45,8.8,43.3,8.8L43.3,8.8z"/>
	<polygon class="st0" points="29.1,17.3 29.1,3.2 27,3.2 27,0.3 32.2,0.3 32.2,17.3 	"/>
	<polygon class="st0" points="83.3,17.3 79.9,17.3 86.3,3.2 79.5,3.2 79.5,0.3 89.5,0.3 89.5,3.2 	"/>
	<polygon class="st0" points="69.8,17.3 66.4,17.3 72.8,3.2 66,3.2 66,0.3 76,0.3 76,3.2 	"/>
	<path class="st0" d="M8.6,0.1C3.8,0.2,0,4,0,8.8c0,4.7,3.9,8.6,8.6,8.6c4.7,0,8.6-3.9,8.6-8.6C17.2,4,13.3,0.1,8.6,0.1z M8.6,15.6
		c-3.8,0-6.9-3.1-6.9-6.9c0-3.8,3.1-6.9,6.9-6.9c3.8,0,6.9,3.1,6.9,6.9C15.5,12.5,12.4,15.6,8.6,15.6z"/>
	<path class="st0" d="M11.8,11.5L11.3,12c-0.1,0.1-0.3,0.1-0.3,0.1c-1.5,0-3-0.6-4.1-1.6C5.8,9.4,5.2,7.9,5.2,6.4
		c0,0,0.1-0.3,0.1-0.3l0.5-0.5C6,5.4,6.3,5.3,6.6,5.4l0.1,0C6.9,5.5,7.2,5.8,7.2,6l0.2,0.9c0.1,0.2,0,0.6-0.2,0.8L7,8
		c0.3,1.2,1.2,2.1,2.4,2.4L9.7,10c0.2-0.2,0.5-0.3,0.8-0.2l0.9,0.2c0.2,0.1,0.5,0.3,0.6,0.5l0,0.1C12,11,11.9,11.3,11.8,11.5
		L11.8,11.5z"/>
</g>
</svg>
