<?xml version="1.0" encoding="utf-8"?>
<!-- Generator: Adobe Illustrator 22.0.0, SVG Export Plug-In . SVG Version: 6.00 Build 0)  -->
<svg version="1.1" id="Capa_1" xmlns="http://www.w3.org/2000/svg" xmlns:xlink="http://www.w3.org/1999/xlink" x="0px" y="0px"
	 viewBox="0 0 512 512" style="enable-background:new 0 0 512 512;" xml:space="preserve">
<style type="text/css">
	.st0{fill:#F37A21;}
</style>
<g>
	<path class="st0" d="M477.2,286.2c10.1-15.2,15.1-31.9,15.1-50.2c0-21.1-7.8-39.5-23.4-55.1c-15.6-15.6-34.1-23.4-55.4-23.4h-54.2
		c9.8-20.3,14.8-40,14.8-59.1c0-24-3.6-43.1-10.8-57.2C356.2,27.1,345.7,16.7,332,10c-13.7-6.7-29.2-10-46.5-10
		c-10.5,0-19.7,3.8-27.7,11.4c-8.8,8.6-15.2,19.7-19.1,33.2c-3.9,13.5-7,26.5-9.4,38.9c-2.4,12.4-6,21.2-10.9,26.3
		c-10.1,10.9-21,24-32.9,39.4c-20.7,26.9-34.8,42.8-42.2,47.7H59.1c-10.9,0-20.2,3.9-27.8,11.5c-7.7,7.7-11.5,17-11.5,27.8v196.9
		c0,10.9,3.8,20.2,11.5,27.8c7.7,7.7,17,11.5,27.8,11.5h88.6c4.5,0,18.7,4.1,42.5,12.3c25.2,8.8,47.4,15.5,66.6,20.2
		c19.2,4.6,38.6,6.9,58.3,6.9h28.6h11.1c28.9,0,52.2-8.3,69.8-24.8c17.6-16.5,26.4-39,26.2-67.5c12.3-15.8,18.5-34.1,18.5-54.8
		c0-4.5-0.3-8.9-0.9-13.2c7.8-13.7,11.7-28.5,11.7-44.3C480,300,479.1,292.9,477.2,286.2z M92.6,427.4c-3.9,3.9-8.5,5.8-13.8,5.8
		c-5.3,0-10-2-13.8-5.8c-3.9-3.9-5.8-8.5-5.8-13.8c0-5.3,1.9-9.9,5.8-13.8c3.9-3.9,8.5-5.8,13.8-5.8c5.3,0,9.9,1.9,13.8,5.8
		c3.9,3.9,5.8,8.5,5.8,13.8C98.5,418.9,96.5,423.5,92.6,427.4z M446.3,261.2c-4.4,9.4-9.9,14.3-16.5,14.5c3.1,3.5,5.6,8.4,7.7,14.6
		c2,6.3,3.1,11.9,3.1,17.1c0,14.1-5.4,26.4-16.3,36.6c3.7,6.6,5.5,13.6,5.5,21.2c0,7.6-1.8,15.1-5.4,22.6
		c-3.6,7.5-8.5,12.9-14.6,16.1c1,6.2,1.5,11.9,1.5,17.2c0,34.3-19.7,51.4-59.1,51.4h-37.2c-26.9,0-61.9-7.5-105.2-22.5
		c-1-0.4-4-1.5-8.9-3.2c-4.9-1.7-8.6-3-10.9-3.8c-2.4-0.8-5.9-2-10.8-3.5c-4.8-1.5-8.7-2.7-11.7-3.4c-3-0.7-6.4-1.4-10.2-2
		c-3.8-0.6-7-0.9-9.7-0.9h-9.8V236.3h9.8c3.3,0,6.9-0.9,10.9-2.8c4-1.8,8.1-4.6,12.3-8.3c4.2-3.7,8.2-7.3,11.8-10.9
		c3.7-3.6,7.8-8.1,12.3-13.5c4.5-5.4,8.1-9.8,10.6-13.1c2.6-3.3,5.8-7.5,9.7-12.6c3.9-5.1,6.3-8.2,7.1-9.2
		c11.3-13.9,19.2-23.3,23.7-28c8.4-8.8,14.5-20,18.3-33.7c3.8-13.6,6.9-26.5,9.4-38.6c2.5-12.1,6.4-20.8,11.7-26.2
		c19.7,0,32.8,4.8,39.4,14.5c6.6,9.6,9.8,24.5,9.8,44.6c0,12.1-4.9,28.6-14.8,49.4c-9.8,20.8-14.8,37.2-14.8,49.1h108.3
		c10.3,0,19.4,3.9,27.4,11.8c8,7.9,12,17.1,12,27.5C452.9,243.5,450.7,251.8,446.3,261.2z"/>
</g>
</svg>
